<?xml version="1.0" encoding="utf-8"?>
<!-- Generator: Adobe Illustrator 21.0.0, SVG Export Plug-In . SVG Version: 6.00 Build 0)  -->
<svg version="1.1" id="Layer_1" xmlns="http://www.w3.org/2000/svg" xmlns:xlink="http://www.w3.org/1999/xlink" x="0px" y="0px"
	 viewBox="0 0 24 24" style="enable-background:new 0 0 24 24;" xml:space="preserve">
<style type="text/css">
	.st0{fill:#3AE2E2;}
	.st1{fill:none;}
</style>
<path class="st0" d="M18.3,5.7L18.3,5.7c-0.4-0.4-1-0.4-1.4,0L12,10.6L7.1,5.7c-0.4-0.4-1-0.4-1.4,0l0,0c-0.4,0.4-0.4,1,0,1.4
	l4.9,4.9l-4.9,4.9c-0.4,0.4-0.4,1,0,1.4h0c0.4,0.4,1,0.4,1.4,0l4.9-4.9l4.9,4.9c0.4,0.4,1,0.4,1.4,0l0,0c0.4-0.4,0.4-1,0-1.4
	L13.4,12l4.9-4.9C18.7,6.7,18.7,6.1,18.3,5.7z"/>
<path class="st1" d="M0,0h24v24H0V0z"/>
</svg>
