<?xml version="1.0" encoding="utf-8"?>
<!-- Generator: Adobe Illustrator 21.1.0, SVG Export Plug-In . SVG Version: 6.00 Build 0)  -->
<svg version="1.1" id="Layer_1" xmlns="http://www.w3.org/2000/svg" xmlns:xlink="http://www.w3.org/1999/xlink" x="0px" y="0px"
	 viewBox="0 0 24 24" style="enable-background:new 0 0 24 24;" xml:space="preserve">
<style type="text/css">
	.st0{opacity:0.8;}
	.st1{fill:none;stroke:#eee;stroke-width:2;stroke-miterlimit:10;}
</style>
<g class="st0">
	<path class="st1" d="M10.3,3.1h3.4c0.4,0,0.7,0.3,0.7,0.7v3.4c0,0.4-0.3,0.7-0.7,0.7h-3.4c-0.4,0-0.7-0.3-0.7-0.7V3.8
		C9.6,3.4,9.9,3.1,10.3,3.1z"/>
	<path class="st1" d="M4.2,16h3.4c0.4,0,0.7,0.3,0.7,0.7v3.4c0,0.4-0.3,0.7-0.7,0.7H4.2c-0.4,0-0.7-0.3-0.7-0.7v-3.4
		C3.5,16.4,3.8,16,4.2,16z"/>
	<path class="st1" d="M16.4,16.1h3.4c0.4,0,0.7,0.3,0.7,0.7v3.4c0,0.4-0.3,0.7-0.7,0.7h-3.4c-0.4,0-0.7-0.3-0.7-0.7v-3.4
		C15.7,16.4,16,16.1,16.4,16.1z"/>
	<path class="st1" d="M18.1,15.2v-2.2c0-0.4-0.4-0.8-0.8-0.8H6.7c-0.4,0-0.8,0.4-0.8,0.8v2.2"/>
	<line class="st1" x1="12" y1="11.4" x2="12" y2="8.4"/>
</g>
</svg>
