<?xml version="1.0" encoding="utf-8"?>
<!-- Generator: Adobe Illustrator 21.0.0, SVG Export Plug-In . SVG Version: 6.00 Build 0)  -->
<svg version="1.1" id="Layer_1" xmlns="http://www.w3.org/2000/svg" xmlns:xlink="http://www.w3.org/1999/xlink" x="0px" y="0px"
	 viewBox="0 0 24 24" style="enable-background:new 0 0 24 24;" xml:space="preserve">
<style type="text/css">
	.st0{fill:none;}
	.st1{fill:#3BE3E3;}
</style>
<path class="st0" d="M0,0h24v24H0V0z"/>
<path class="st1" d="M20,2H4C2.9,2,2,2.9,2,4l0,18l4-4h14c1.1,0,2-0.9,2-2V4C22,2.9,21.1,2,20,2z M8,14H6v-2h2V14z M8,11H6V9h2V11z
	 M8,8H6V6h2V8z M15,14h-5v-2h5V14z M18,11h-8V9h8V11z M18,8h-8V6h8V8z"/>
</svg>
