<?xml version="1.0" encoding="utf-8"?>
<!-- Generator: Adobe Illustrator 21.0.0, SVG Export Plug-In . SVG Version: 6.00 Build 0)  -->
<svg version="1.1" id="Layer_1" xmlns="http://www.w3.org/2000/svg" xmlns:xlink="http://www.w3.org/1999/xlink" x="0px" y="0px"
	 viewBox="0 0 1318 348" style="enable-background:new 0 0 1318 348;" xml:space="preserve">
<style type="text/css">
	.st0{fill:#4D4D4D;}
</style>
<g>
	<g>
		<path class="st0" d="M167.2,24.5c-82.8,0-149.9,67.1-149.9,149.9s67.1,149.9,149.9,149.9s149.9-67.1,149.9-149.9
			S250,24.5,167.2,24.5z M166.7,300.6c-69.7,0-126.2-56.5-126.2-126.2S96.9,48.1,166.7,48.1s126.2,56.5,126.2,126.2
			S236.4,300.6,166.7,300.6z"/>
		<path class="st0" d="M167.2,72.8c-56.1,0-101.5,45.5-101.5,101.5s45.5,101.5,101.5,101.5s101.5-45.5,101.5-101.5
			S223.3,72.8,167.2,72.8z M166.8,231.3c-31.3,0-56.7-25.4-56.7-56.7s25.4-56.7,56.7-56.7c31.3,0,56.7,25.4,56.7,56.7
			S198.2,231.3,166.8,231.3z"/>
		<path class="st0" d="M185.3,170.8c1.4,7.2-1.5,14.9-8.1,19.1c-6.5,4.2-14.8,3.7-20.7-0.5L137,201.9l-7-10.9l19.3-12.4
			c-1.7-7.4,1.3-15.3,8-19.6c6.7-4.3,15.1-3.7,21.1,0.9l20.2-13l7,10.9L185.3,170.8z"/>
	</g>
	<g>
		<g>
			<path class="st0" d="M415.4,145.2c0-6.5,1.3-12.7,3.9-18.6c2.6-5.9,6.2-11.1,10.8-15.6c4.6-4.5,10.1-8.1,16.4-10.8
				c6.3-2.7,13.3-4,21-4c5.7,0,11.1,0.7,16.3,2c5.2,1.4,9.8,3,14,4.8c4.2,1.9,7.8,3.8,10.9,5.7c3.1,1.9,5.5,3.6,7.1,4.9l-13,18.3
				c-5.2-3.8-10.9-7.1-17.3-9.9c-6.3-2.8-12.7-4.1-19-4.1c-8,0-14.3,2.4-18.9,7.1c-4.6,4.7-7.1,10.2-7.4,16.4
				c-0.2,4.2,0.7,7.8,2.6,10.9c1.9,3.1,4.5,5.9,7.8,8.5c3.3,2.6,7,5,11.1,7.2c4.2,2.2,8.5,4.5,13,6.6v-0.2
				c5.7,2.8,11.4,5.7,17.1,8.7c5.8,3,10.9,6.5,15.5,10.6c4.6,4.1,8.3,8.9,11.3,14.4c2.9,5.5,4.4,12.1,4.4,19.7
				c0,6.3-1.6,12.4-4.8,18.2c-3.2,5.8-7.4,10.9-12.6,15.2s-11.4,7.7-18.5,10.2c-7.1,2.5-14.5,3.6-22.2,3.2c-4.5,0-9.3-0.6-14.5-1.9
				c-5.2-1.3-10.3-3-15.5-5.1c-5.2-2.2-10.1-4.8-14.8-8c-4.7-3.2-8.8-6.7-12.5-10.5l13.3-20c2.5,2.8,5.5,5.5,8.9,8.1
				c3.4,2.6,7.1,5,11.1,7.1c4,2.2,8.3,3.9,12.9,5.1c4.6,1.3,9.5,1.9,14.6,1.9c4,0,7.8-0.6,11.4-1.8c3.6-1.2,6.7-2.8,9.4-4.9
				c2.7-2.1,4.8-4.5,6.3-7.4c1.5-2.8,2.3-5.8,2.3-9c0-4.2-1-7.8-3-11c-2-3.2-4.7-6.1-8-8.8c-3.3-2.7-7.2-5.1-11.5-7.3
				c-4.3-2.2-8.8-4.3-13.5-6.5c-5.5-2.7-11.1-5.5-16.6-8.4c-5.6-2.9-10.6-6.3-14.9-10.1c-4.3-3.8-7.9-8.3-10.6-13.3
				C416.7,158.2,415.4,152.2,415.4,145.2z"/>
			<path class="st0" d="M528.2,148.5h23.8l33.3,95.6l33.3-95.6h23.8L597,272.4c-2.8,5.5-5.7,10.8-8.6,15.9
				c-2.9,5.1-6.2,9.5-9.9,13.3c-3.7,3.8-7.9,6.8-12.6,9c-4.8,2.3-10.4,3.4-16.9,3.4c-5.8,0-10-0.2-12.5-0.5c-2.5-0.3-4.8-0.7-7-1
				l6.5-19.3c1.2,0.2,2.4,0.3,3.6,0.4c1.3,0.1,2.7,0.1,4.4,0.1c4.8,0,9-0.7,12.5-2.1c3.5-1.4,6.5-3.2,8.9-5.3
				c2.4-2.1,4.3-4.4,5.5-6.9c1.3-2.5,2-4.9,2.1-7.3L528.2,148.5z"/>
			<path class="st0" d="M728.1,146.7c6.5,0,12.1,1.3,16.6,3.8c4.6,2.5,8.3,5.8,11,9.8c2.8,4,4.8,8.5,6,13.4
				c1.3,4.9,1.9,9.9,1.9,14.9v84.8h-22v-76.2c0-9.7-1-16.9-2.9-21.6c-1.9-4.7-6.6-7.1-14.1-7.1c-4,0-8.6,1-13.9,3
				c-5.3,2-11.1,5.6-17.6,10.7c-0.3,0.3-0.5,0.7-0.5,1v90.1h-22V168.2c-2.7,0.2-5.3,0.2-7.8,0c-2.5-0.2-4.8-0.6-7-1.3v-15.5
				c2.8,0,6.3-0.1,10.4-0.4c4.1-0.3,8-0.6,11.9-0.9c3.8-0.3,7.1-0.7,9.9-1.1c2.8-0.4,4.3-0.6,4.6-0.6v13.2c4.7-3.4,9-6,13.1-8
				c4.1-1.9,7.7-3.4,10.8-4.4c3.1-1,5.7-1.7,7.8-2C726.3,146.9,727.6,146.7,728.1,146.7z"/>
			<path class="st0" d="M841,146.7c8,0,14.8,1.2,20.4,3.5c5.6,2.3,11,5.4,16.1,9.3L866.3,176c-1.8-1.7-4-3.2-6.5-4.5
				c-2.2-1.2-4.7-2.2-7.6-3.1c-2.9-0.9-6-1.4-9.4-1.4c-4.7,0-9.1,0.6-13.3,1.9c-4.2,1.3-7.9,3.3-11.1,6.3c-3.3,2.9-5.8,6.8-7.8,11.8
				c-1.9,4.9-3,11.1-3.1,18.4c-0.3,16.9,2.7,29.3,9.1,37.3c6.4,8,15.2,12,26.4,12c4.3-0.2,8.3-0.8,11.9-1.9c3.6-1.1,6.5-2.3,8.9-3.6
				c2.8-1.5,5.3-3.3,7.5-5.3l13.3,15.8c-6.3,5.3-12.8,9.3-19.5,11.8c-6.7,2.5-14.6,3.8-23.8,3.8c-5.2,0-11-0.8-17.4-2.5
				c-6.4-1.7-12.5-4.9-18.1-9.6c-5.7-4.8-10.5-11.4-14.4-19.9c-3.9-8.5-5.9-19.5-5.9-33c0-11.8,1.8-21.8,5.3-29.9
				c3.5-8.1,7.9-14.6,13.3-19.5c5.3-4.9,11.3-8.5,17.9-10.6C828.4,147.8,834.8,146.7,841,146.7z"/>
			<path class="st0" d="M931.7,161.5c3.5-3.8,7.4-6.8,11.8-8.8c4.3-2,8.4-3.5,12.3-4.4c3.8-0.9,7.1-1.4,9.9-1.5
				c2.8-0.1,4.4-0.1,4.9-0.1l-0.2,20.5c-2.2,0-4.7,0.3-7.6,1c-2.9,0.7-6,1.6-9.3,2.9c-3.3,1.3-6.6,2.8-10.1,4.8
				c-3.5,1.9-6.8,4.1-10,6.6c-1,0.8-1.5,1.8-1.5,3v87.6h-22V168.2c-2.5,0-5,0-7.5-0.1c-2.5-0.1-4.8-0.5-7-1.1v-16.8
				c2.8,0,6.3,0,10.4-0.1c4.1-0.1,8-0.3,11.9-0.5c3.8-0.2,7.2-0.5,10-0.8c2.8-0.2,4.3-0.4,4.5-0.4l-0.2,11.8V161.5z"/>
			<path class="st0" d="M982,148.5h23.8l33.3,95.6l33.3-95.6h23.8l-45.3,123.9c-2.8,5.5-5.7,10.8-8.6,15.9
				c-2.9,5.1-6.2,9.5-9.9,13.3c-3.7,3.8-7.9,6.8-12.6,9c-4.8,2.3-10.4,3.4-16.9,3.4c-5.8,0-10-0.2-12.5-0.5c-2.5-0.3-4.8-0.7-7-1
				l6.5-19.3c1.2,0.2,2.4,0.3,3.6,0.4c1.3,0.1,2.7,0.1,4.4,0.1c4.8,0,9-0.7,12.5-2.1c3.5-1.4,6.5-3.2,8.9-5.3
				c2.4-2.1,4.3-4.4,5.5-6.9c1.3-2.5,2-4.9,2.1-7.3L982,148.5z"/>
			<path class="st0" d="M1177.2,146.7c4,0,8.8,0.6,14.3,1.9c5.5,1.3,10.7,4.1,15.6,8.6c4.9,4.5,9.1,11.1,12.5,19.8
				c3.4,8.7,5.1,20.4,5.1,35c0,13.5-1.7,24.3-5.1,32.4c-3.4,8.1-7.6,14.2-12.6,18.4c-5,4.2-10.4,6.9-16.3,8.1
				c-5.8,1.3-11.3,1.9-16.3,1.9c-4.5,0-8.5-0.5-11.9-1.6c-3.4-1.1-6.3-2.4-8.8-4c-2.4-1.6-4.3-3.3-5.8-5.3c-1.4-1.9-2.4-3.7-2.9-5.4
				v58.8h-22V168.2c-2.5,0-5,0-7.5-0.1c-2.5-0.1-4.8-0.5-7-1.4v-15.5c2.8,0,6.3-0.1,10.4-0.4c4.1-0.2,8-0.5,11.8-0.9
				c3.8-0.3,7-0.7,9.8-1c2.8-0.3,4.3-0.5,4.6-0.5V161c1-1,2.4-2.3,4.3-3.9c1.8-1.6,4.1-3.1,6.9-4.6c2.8-1.5,5.8-2.8,9.3-4
				C1169,147.3,1172.9,146.7,1177.2,146.7z M1174.2,252.6c10.8,0,18.3-3.2,22.4-9.5c4.1-6.3,6.1-16.4,6.1-30.3
				c0-6.3-0.5-12.3-1.6-17.9c-1.1-5.6-2.7-10.5-4.9-14.6c-2.2-4.2-4.9-7.5-8.3-9.9c-3.3-2.4-7.3-3.6-12-3.6c-3.8,0-7.4,0.5-10.6,1.4
				c-3.3,0.9-6.2,2-8.8,3.4c-2.6,1.3-4.8,2.7-6.6,4.1c-1.8,1.4-3.2,2.5-4,3.4c-0.5,0.5-0.8,1.1-0.8,1.8v55.1c0.7,1,1.8,2.4,3.4,4.3
				c1.6,1.8,3.6,3.7,6,5.6c2.4,1.9,5.3,3.5,8.6,4.9C1166.5,251.9,1170.2,252.6,1174.2,252.6z"/>
			<path class="st0" d="M1248,113.7l22.3-8v42.8h23.3v17.8h-23.3v73.6c0,1.8,0,3.6,0.1,5.4c0.1,1.8,0.4,3.4,0.9,4.9
				c0.5,1.5,1.3,2.7,2.4,3.6c1.1,0.9,2.6,1.4,4.6,1.4c2.8,0,5.3,0,7.3,0c2,0,3.8-0.1,5.4-0.2c1.6-0.2,3.2-0.5,4.8-0.9
				c1.6-0.4,3.4-1,5.4-1.6l5,19.3c-5.8,1-11.1,1.8-15.9,2.4c-4.8,0.6-9,0.9-12.6,0.9c-5.2,0-9.6-0.6-13.4-1.8
				c-3.8-1.2-6.8-3.1-9.3-5.9c-2.4-2.8-4.2-6.3-5.4-10.8c-1.2-4.4-1.8-10-1.8-16.6l0.2-73.6h-13.3v-17.8h13.3V113.7z"/>
		</g>
	</g>
</g>
</svg>
