<?xml version="1.0" encoding="utf-8"?>
<!-- Generator: Adobe Illustrator 21.0.0, SVG Export Plug-In . SVG Version: 6.00 Build 0)  -->
<svg version="1.1" id="Layer_1" xmlns="http://www.w3.org/2000/svg" xmlns:xlink="http://www.w3.org/1999/xlink" x="0px" y="0px"
	 viewBox="0 0 24 24" style="enable-background:new 0 0 24 24;" xml:space="preserve">
<style type="text/css">
	.st0{fill:none;}
	.st1{clip-path:url(#SVGID_2_);fill:#3BE3E3;}
</style>
<path class="st0" d="M0,0h24v24H0V0z"/>
<g>
	<defs>
		<rect id="SVGID_1_" x="3.8" y="5.8" width="16.3" height="12.3"/>
	</defs>
	<clipPath id="SVGID_2_">
		<use xlink:href="#SVGID_1_"  style="overflow:visible;"/>
	</clipPath>
	<path class="st1" d="M10,12.7c-1.5,0-2.7-1.2-2.7-2.7c0-1.5,1.2-2.7,2.7-2.7c1.5,0,2.7,1.2,2.7,2.7C12.7,11.5,11.5,12.7,10,12.7
		 M12.4,13.2c1-0.8,1.6-2,1.6-3.3c0-2.3-1.8-4.1-4.1-4.1S5.9,7.7,5.9,9.9c0,1.3,0.6,2.5,1.6,3.3c-2,0.9-3.4,2.7-3.7,4.9h1.4
		c0.3-2.3,2.4-4.1,4.8-4.1s4.4,1.8,4.8,4.1h1.4C15.8,16,14.4,14.1,12.4,13.2"/>
	<path class="st1" d="M17.9,13.1c0.5-0.7,0.9-1.6,0.9-2.5c0-2.5-2.2-4.4-4.6-4.1c0.2,0.2,0.3,0.5,0.5,0.8c0.1,0.2,0.2,0.4,0.3,0.6
		c1.6,0.3,2.5,1.4,2.5,2.7c0,0.9-0.5,1.7-1.1,2.2c-0.2,0.1-0.3,0.3-0.3,0.5c0,0.3,0.2,0.6,0.5,0.7c1.2,0.3,2.2,1.4,2.2,2.7h1.4
		C20.2,15.2,19.3,13.8,17.9,13.1"/>
</g>
</svg>
