<?xml version="1.0" encoding="utf-8"?>
<!-- Generator: Adobe Illustrator 21.0.0, SVG Export Plug-In . SVG Version: 6.00 Build 0)  -->
<svg version="1.1" id="Layer_1" xmlns="http://www.w3.org/2000/svg" xmlns:xlink="http://www.w3.org/1999/xlink" x="0px" y="0px"
	 viewBox="0 0 24 24" style="enable-background:new 0 0 24 24;" xml:space="preserve">
<style type="text/css">
	.st0{fill:none;}
	.st1{fill:#3BE3E3;}
</style>
<path class="st0" d="M0,0h24v24H0V0z"/>
<g>
	<path class="st1" d="M20.8,9.2l-1.1-0.1V9c0,0,1-1.4,1-1.7V7.1l0,0c0-0.3-0.2-0.6-0.4-0.8L18,4c-0.3-0.3-0.6-0.4-1-0.4
		c-0.5,0-1.8,0.9-1.8,0.9h-0.1L15,3.4c-0.1-0.7-0.7-1.2-1.4-1.2h-3.3C9.7,2.2,9.1,2.8,9,3.4L8.9,4.5l0,0l-1-0.7
		C7.7,3.7,7.4,3.6,7,3.6C6.7,3.6,6.3,3.7,6.1,4L3.8,6.3C3.5,6.5,3.4,6.8,3.4,7.1c0,0.1,0,0.2,0,0.2C3.4,7.6,4.3,9,4.3,9s0,0,0,0.1
		L3.2,9.2C2.5,9.3,2,9.9,2,10.6v3.3c0,0.7,0.5,1.3,1.2,1.4l1.1,0.1c0,0,0,0,0,0.1l-0.6,0.8c-0.2,0.2-0.2,0.5-0.2,0.8v0.1
		c0,0.4,0.2,0.7,0.4,0.9l2.2,2.4c0.3,0.3,0.6,0.4,1,0.4c0.3,0,0.6-0.1,0.8-0.3l0.9-0.7c0,0,0,0,0.1,0L9,21c0.1,0.6,0.7,1.2,1.4,1.2
		h3.3c0.7,0,1.3-0.5,1.4-1.2l0.1-1.1c0,0,0,0,0.1,0l0.9,0.6c0.2,0.2,0.5,0.2,0.8,0.2l0,0c0.3,0,0.6-0.1,0.9-0.4l2.3-2.3
		c0.2-0.2,0.4-0.5,0.4-0.9V17v-0.1c0-0.3-0.1-0.6-0.3-0.8l-0.6-0.7v-0.1l1.1-0.1c0.7-0.1,1.2-0.7,1.2-1.4v-3.3
		C22,9.9,21.5,9.3,20.8,9.2z M18.3,13.7l-0.9,2l1.1,1.5L16.7,19l-1.5-1.2l-2,1l-0.1,1.9h-2.6l-0.1-1.8l-1.9-1L7.3,19l-0.2,0.1
		l-1.8-1.8l1.2-1.5l-0.9-2.2l-1.8-0.1v-2.6l1.8-0.1l1-2L5.3,7.3l1.8-1.8l1.5,1.1l1.9-0.8L10.8,4h2.6l0.1,1.9l2,0.7l1.4-1.1l1.8,1.8
		l-1.2,1.4l0.9,1.9l1.8,0.1v2.8L18.3,13.7z"/>
	<path class="st1" d="M12,8.5c-1,0-1.9,0.4-2.6,1.1c-0.7,0.7-1.1,1.6-1.1,2.6s0.4,1.9,1.1,2.6c0.7,0.7,1.6,1.1,2.6,1.1
		s1.9-0.4,2.6-1.1c0.7-0.7,1.1-1.6,1.1-2.6s-0.4-1.9-1.1-2.6S13,8.5,12,8.5z M13.3,13.5C12.9,13.9,12.5,14,12,14s-1-0.2-1.3-0.5
		c-0.4-0.4-0.5-0.8-0.5-1.3s0.2-0.9,0.5-1.3c0.4-0.4,0.8-0.6,1.3-0.6s0.9,0.2,1.3,0.6c0.4,0.4,0.6,0.8,0.6,1.3
		C13.8,12.7,13.7,13.2,13.3,13.5z"/>
</g>
</svg>
