<?xml version="1.0" encoding="utf-8"?>
<!-- Generator: Adobe Illustrator 21.0.0, SVG Export Plug-In . SVG Version: 6.00 Build 0)  -->
<svg version="1.1" id="Layer_1" xmlns="http://www.w3.org/2000/svg" xmlns:xlink="http://www.w3.org/1999/xlink" x="0px" y="0px"
	 viewBox="0 0 24 24" style="enable-background:new 0 0 24 24;" xml:space="preserve">
<style type="text/css">
	.st0{fill:none;}
	.st1{fill:#3BE3E3;}
</style>
<path class="st0" d="M0,0h24v24H0V0z"/>
<g>
	<path class="st1" d="M20.8,9l-0.6-0.1h-0.5V8.8L20,8.4l0.4-0.5c0.2-0.2,0.3-0.5,0.3-0.8V6.9l0,0c0-0.3-0.2-0.6-0.4-0.8L18,3.8
		c-0.3-0.3-0.6-0.4-1-0.4c-0.3,0-0.6,0.1-0.8,0.3l-0.5,0.4l-0.5,0.2h-0.1V3.8L15,3.2C14.9,2.5,14.3,2,13.6,2h-3.3
		C9.7,2,9.1,2.6,9,3.2L8.9,3.8v0.5l0,0L8.4,4L7.9,3.6C7.7,3.5,7.4,3.4,7,3.4c-0.3,0-0.7,0.1-0.9,0.4L3.8,6.1
		C3.5,6.3,3.4,6.6,3.4,6.9c0,0.1,0,0.2,0,0.2c0,0.3,0.1,0.6,0.2,0.8L4,8.4l0.3,0.4c0,0,0,0,0,0.1H3.8L3.2,9C2.5,9.1,2,9.7,2,10.4
		v3.3c0,0.7,0.5,1.3,1.2,1.4l0.6,0.1h0.5c0,0,0,0,0,0.1L4,15.6l-0.3,0.5c-0.2,0.2-0.2,0.5-0.2,0.8V17c0,0.4,0.2,0.7,0.4,0.9l2.2,2.4
		c0.3,0.3,0.6,0.4,1,0.4c0.3,0,0.6-0.1,0.8-0.3L8.4,20l0.4-0.3c0,0,0,0,0.1,0v0.5L9,20.8c0.1,0.6,0.7,1.2,1.4,1.2h3.3
		c0.7,0,1.3-0.5,1.4-1.2l0.1-0.6v-0.5c0,0,0,0,0.1,0l0.4,0.3l0.5,0.3c0.2,0.2,0.5,0.2,0.8,0.2l0,0c0.3,0,0.6-0.1,0.9-0.4l2.3-2.3
		c0.2-0.2,0.4-0.5,0.4-0.9v-0.1v-0.1c0-0.3-0.1-0.6-0.3-0.8L20,15.6l-0.3-0.4v-0.1h0.5l0.6-0.1c0.7-0.1,1.2-0.7,1.2-1.4v-3.3
		C22,9.7,21.5,9.1,20.8,9z M18.3,13.5l-0.1,0.3c0,0.2-0.1,0.3-0.2,0.6c0,0-0.1,0.2-0.2,0.4c0,0.1-0.1,0.2-0.3,0.5l-0.1,0.2l0.9,1.1
		l0.1,0.2l0.1,0.2l-1.8,1.8l-0.4-0.3l-1.1-0.9L15,17.8c-0.2,0.1-0.4,0.2-0.5,0.3c0,0-0.1,0-0.2,0.1c-0.1,0-0.2,0.1-0.2,0.1l0,0
		l-0.9,0.3L13.1,20v0.3v0.2h-2.6v-0.2V20l-0.1-1.3l-0.8-0.3l-0.4-0.2c-0.1-0.1-0.3-0.2-0.5-0.3l-0.2-0.2l-1.2,1.1l-0.2,0.1l-1.8-1.8
		l0.1-0.2l0.2-0.2l0.9-1.1l-0.2-0.2C6.2,15.2,6.1,15,6,14.9l-0.1-0.6l-0.3-0.9L4,13.3H3.8v-2.6H4l1.6-0.1l0.3-0.8l0.2-0.5
		C6.2,9.2,6.2,9,6.4,8.8l0.2-0.2l-1-1.1L5.3,7.1l1.8-1.8l0.2,0.1l1.3,1L9,6.2c0.1-0.1,0.2-0.1,0.3-0.1C9.5,6,9.6,6,9.7,5.9
		c0.2-0.1,0.3-0.1,0.5-0.2l0.3-0.1l0.2-1.3l0.1-0.5h2.6V4l0.1,1.7l0.3,0.1c0.2,0,0.4,0.1,0.6,0.2c0.1,0,0.3,0.1,0.4,0.1L15,6.2
		l0.5,0.2l1-0.9l0.4-0.2l1.8,1.8l-0.3,0.4l-0.9,1l0.1,0.2c0.1,0.2,0.2,0.4,0.3,0.5C18,9.4,18,9.5,18.1,9.6c0.1,0.2,0.1,0.4,0.2,0.5
		l0.1,0.3l1.6,0.1h0.2v2.8H20L18.3,13.5z"/>
	<path class="st1" d="M12,8.3c-1,0-1.9,0.4-2.6,1.1C8.7,10.1,8.3,11,8.3,12s0.4,1.9,1.1,2.6c0.7,0.7,1.6,1.1,2.6,1.1
		s1.9-0.4,2.6-1.1c0.7-0.7,1.1-1.6,1.1-2.6s-0.4-1.9-1.1-2.6S13,8.3,12,8.3z M13.3,13.3c-0.4,0.4-0.8,0.5-1.3,0.5s-1-0.2-1.3-0.5
		c-0.4-0.4-0.5-0.8-0.5-1.3s0.2-0.9,0.5-1.3c0.4-0.4,0.8-0.6,1.3-0.6s0.9,0.2,1.3,0.6c0.4,0.4,0.6,0.8,0.6,1.3
		C13.8,12.5,13.7,13,13.3,13.3z"/>
</g>
</svg>
