<?xml version="1.0" encoding="utf-8"?>
<!-- Generator: Adobe Illustrator 21.0.0, SVG Export Plug-In . SVG Version: 6.00 Build 0)  -->
<svg version="1.1" id="Layer_1" xmlns="http://www.w3.org/2000/svg" xmlns:xlink="http://www.w3.org/1999/xlink" x="0px" y="0px"
	 viewBox="0 0 24 24" style="enable-background:new 0 0 24 24;" xml:space="preserve">
<style type="text/css">
	.st0{fill:none;}
	.st1{fill:#3BE3E3;}
</style>
<path class="st0" d="M0,0h24v24H0V0z"/>
<g>
	<g>
		<path class="st1" d="M11.9,12.7c-1.5,0-2.7-1.2-2.7-2.7s1.2-2.7,2.7-2.7s2.7,1.2,2.7,2.7S13.4,12.7,11.9,12.7 M14.3,13.2
			c1-0.8,1.6-2,1.6-3.3c0-2.3-1.8-4.1-4.1-4.1s-4,1.9-4,4.1c0,1.3,0.6,2.5,1.6,3.3c-2,0.9-3.4,2.7-3.7,4.9h1.4
			c0.3-2.3,2.4-4.1,4.8-4.1s4.4,1.8,4.8,4.1h1.4C17.7,16,16.3,14.1,14.3,13.2"/>
	</g>
</g>
</svg>
