<?xml version="1.0" encoding="utf-8"?>
<!-- Generator: Adobe Illustrator 21.0.0, SVG Export Plug-In . SVG Version: 6.00 Build 0)  -->
<svg version="1.1" id="Layer_1" xmlns="http://www.w3.org/2000/svg" xmlns:xlink="http://www.w3.org/1999/xlink" x="0px" y="0px"
	 viewBox="0 0 500 500" style="enable-background:new 0 0 500 500;" xml:space="preserve">
<style type="text/css">
	.st0{fill:#4D4D4D;}
	.st1{fill:none;}
</style>
<path class="st0" d="M249.6,5.7C114.8,5.7,5.5,115,5.5,249.9S114.8,494,249.6,494s244.2-109.3,244.2-244.2S384.5,5.7,249.6,5.7z
	 M248.8,455.5c-113.6,0-205.6-92.1-205.6-205.6S135.2,44.2,248.8,44.2c113.6,0,205.6,92.1,205.6,205.6S362.3,455.5,248.8,455.5z"/>
<path class="st0" d="M249.6,80.7c-93.4,0-169.2,75.7-169.2,169.2S156.2,419,249.6,419s169.2-75.7,169.2-169.2S343.1,80.7,249.6,80.7
	z M249,344.6c-52.2,0-94.5-42.3-94.5-94.5s42.3-94.5,94.5-94.5s94.5,42.3,94.5,94.5S301.2,344.6,249,344.6z"/>
<path class="st0" d="M278.1,244.1c2.3,11.7-2.5,24.2-13.2,31.1c-10.7,6.9-24.1,6.1-33.8-0.9l-31.7,20.4L188,276.9l31.5-20.2
	c-2.7-12,2.1-24.9,13-31.9c10.9-7,24.7-6.1,34.4,1.4l32.9-21.1l11.4,17.8L278.1,244.1z"/>
<path class="st1" d="M370,225h24v24h-24V225z"/>
<path class="st1" d="M269,225h24v24h-24V225z"/>
</svg>
