<svg id="Layer_1" data-name="Layer 1" xmlns="http://www.w3.org/2000/svg" viewBox="0 0 488.31 488.31"><defs><style>.cls-1{fill:#3be3e3;stroke:#000;stroke-miterlimit:10;}.cls-2{fill:#4d4d4d;}.cls-3{fill:none;}</style></defs><title>vault_tray_icon</title><circle class="cls-1" cx="244.15" cy="244.15" r="233.63"/><path class="cls-2" d="M249.63,5.71C114.78,5.71,5.47,115,5.47,249.87S114.78,494,249.63,494,493.78,384.71,493.78,249.87,384.47,5.71,249.63,5.71Zm-.86,449.78c-113.56,0-205.62-92.06-205.62-205.62S135.2,44.25,248.77,44.25s205.62,92.06,205.62,205.62S362.33,455.49,248.77,455.49Z" transform="translate(-5.47 -5.71)"/><path class="cls-2" d="M249.63,80.71A169.16,169.16,0,1,0,418.79,249.87,169.16,169.16,0,0,0,249.63,80.71ZM249,344.62a94.5,94.5,0,1,1,94.5-94.5A94.5,94.5,0,0,1,249,344.62Z" transform="translate(-5.47 -5.71)"/><path class="cls-2" d="M278.12,244.11a30,30,0,0,1-46.95,30.19l-31.72,20.41L188,276.93l31.48-20.25a30,30,0,0,1,47.43-30.52L299.8,205l11.44,17.78Z" transform="translate(-5.47 -5.71)"/><path class="cls-3" d="M370,225h24v24H370Z" transform="translate(-5.47 -5.71)"/><path class="cls-3" d="M269,225h24v24H269Z" transform="translate(-5.47 -5.71)"/></svg>